<svg width="8" height="8" viewBox="0 0 8 8" fill="none" xmlns="http://www.w3.org/2000/svg">
<g clip-path="url(#clip0)">
<path d="M4.73292 4.00727L7.84796 0.892136C8.05069 0.68951 8.05069 0.36189 7.84796 0.159264C7.64534 -0.043363 7.31772 -0.043363 7.11509 0.159264L3.99996 3.2744L0.884914 0.159264C0.682192 -0.043363 0.354668 -0.043363 0.152041 0.159264C-0.0506804 0.36189 -0.0506804 0.68951 0.152041 0.892136L3.26708 4.00727L0.152041 7.12241C-0.0506804 7.32504 -0.0506804 7.65265 0.152041 7.85528C0.253022 7.95636 0.385797 8.00713 0.518478 8.00713C0.651158 8.00713 0.783838 7.95636 0.884914 7.85528L3.99996 4.74015L7.11509 7.85528C7.21617 7.95636 7.34885 8.00713 7.48153 8.00713C7.61421 8.00713 7.74689 7.95636 7.84796 7.85528C8.05069 7.65265 8.05069 7.32504 7.84796 7.12241L4.73292 4.00727Z" fill="black"/>
</g>
<defs>
<clipPath id="clip0">
<rect width="8" height="8" fill="white"/>
</clipPath>
</defs>
</svg>
