<svg width="34" height="34" viewBox="0 0 34 34" fill="none" xmlns="http://www.w3.org/2000/svg">
<g clip-path="url(#clip0)">
<path d="M2.04786 15.0949C-2.33428 9.55488 0.695134 0.780817 7.54026 0.0540358C7.87974 0.0182371 8.22503 0 8.57356 0C12.0925 0 15.1885 1.87977 16.9997 4.72813C18.8109 1.87977 21.9075 0 25.4264 0C25.775 0 26.1203 0.0182371 26.4597 0.0540358C33.3049 0.780142 36.3343 9.55488 31.9521 15.0949L16.9997 34L2.04786 15.0949Z" fill="#EA3457"/>
<path d="M16.9994 34C16.6835 34 16.384 33.8535 16.1827 33.5989L2.16363 15.9216C-0.0699155 13.106 -0.619815 9.23311 0.727347 5.81498C2.01146 2.55665 4.73913 0.404213 8.02336 0.0568424C8.37561 0.0195791 8.73514 0 9.09891 0C12.1503 0 15.0114 1.36548 16.9994 3.7156C18.9886 1.36548 21.8503 0 24.9005 0C25.2643 0 25.6244 0.0195791 25.9797 0.0568424C29.2609 0.404213 31.9885 2.55665 33.2727 5.81498C34.6198 9.23311 34.0699 13.106 31.8364 15.9216L17.8161 33.5989C17.6154 33.8535 17.3159 34 16.9994 34V34ZM9.09891 2.20738C8.8085 2.20738 8.52234 2.22254 8.23981 2.25349C5.74374 2.51686 3.66964 4.1615 2.68746 6.65246C1.63738 9.31585 2.06299 12.3285 3.79696 14.5157L16.9994 31.1629L30.203 14.5157C31.937 12.3285 32.362 9.31585 31.3125 6.65246C30.3304 4.1615 28.2557 2.51686 25.7626 2.25349C25.4777 2.22254 25.1909 2.20738 24.9005 2.20738C22.0746 2.20738 19.4512 3.67518 17.8821 6.13583C17.6857 6.44341 17.3547 6.62846 16.9994 6.62846C16.6447 6.62846 16.3131 6.44341 16.1173 6.13583C14.5488 3.67581 11.9254 2.20738 9.09891 2.20738V2.20738Z" fill="#EA3457"/>
</g>
<defs>
<clipPath id="clip0">
<rect width="34" height="34" fill="white"/>
</clipPath>
</defs>
</svg>
