<svg width="18" height="18" viewBox="0 0 18 18" fill="none" xmlns="http://www.w3.org/2000/svg">
<g clip-path="url(#clip0)">
<path d="M17.55 7.79399C17.5494 7.79358 17.549 7.79303 17.5486 7.79262L10.206 0.450303C9.89302 0.137192 9.47692 -0.0351562 9.0343 -0.0351562C8.59169 -0.0351562 8.17558 0.137192 7.86247 0.450303L0.523731 7.78891C0.521259 7.79138 0.51865 7.79399 0.516316 7.79646C-0.126386 8.44287 -0.125287 9.49166 0.519474 10.1364C0.814046 10.4311 1.20296 10.6017 1.61893 10.6197C1.63596 10.6213 1.65299 10.6222 1.67016 10.6222H1.96267V16.0255C1.96267 17.0949 2.83279 17.9649 3.90217 17.9649H6.77482C7.0661 17.9649 7.30217 17.7287 7.30217 17.4375V13.2012C7.30217 12.7133 7.69919 12.3164 8.18712 12.3164H9.88149C10.3694 12.3164 10.7663 12.7133 10.7663 13.2012V17.4375C10.7663 17.7287 11.0024 17.9649 11.2936 17.9649H14.1663C15.2358 17.9649 16.1058 17.0949 16.1058 16.0255V10.6222H16.3772C16.8196 10.6222 17.2357 10.4498 17.549 10.1366C18.1944 9.49083 18.1947 8.44013 17.55 7.79399ZM16.8032 9.39086C16.6893 9.5047 16.538 9.56746 16.3772 9.56746H15.5785C15.2872 9.56746 15.0511 9.80353 15.0511 10.0948V16.0255C15.0511 16.5133 14.6542 16.9102 14.1663 16.9102H11.821V13.2012C11.821 12.1318 10.951 11.2617 9.88149 11.2617H8.18712C7.1176 11.2617 6.24748 12.1318 6.24748 13.2012V16.9102H3.90217C3.41438 16.9102 3.01736 16.5133 3.01736 16.0255V10.0948C3.01736 9.80353 2.78129 9.56746 2.49001 9.56746H1.70504C1.6968 9.56691 1.6887 9.5665 1.68032 9.56636C1.52321 9.56362 1.37586 9.50127 1.26545 9.39072C1.03061 9.15589 1.03061 8.7737 1.26545 8.53873C1.26558 8.53873 1.26558 8.53859 1.26572 8.53845L1.26613 8.53804L8.60845 1.196C8.72215 1.08216 8.87335 1.01953 9.0343 1.01953C9.19512 1.01953 9.34632 1.08216 9.46016 1.196L16.8008 8.53653C16.8019 8.53763 16.8032 8.53873 16.8043 8.53983C17.0379 8.77507 17.0374 9.15644 16.8032 9.39086Z" fill="black"/>
</g>
<defs>
<clipPath id="clip0">
<rect width="18" height="18" fill="white"/>
</clipPath>
</defs>
</svg>
