<svg width="18" height="18" viewBox="0 0 18 18" fill="none" xmlns="http://www.w3.org/2000/svg">
<path d="M15.4125 3.06702H2.55536C1.44606 3.06739 0.546935 3.96664 0.546432 5.07595V12.5772C0.546935 13.6865 1.44606 14.5858 2.55536 14.5861H15.4125C16.5218 14.5858 17.4209 13.6865 17.4214 12.5772V5.07595C17.4209 3.96664 16.5218 3.06739 15.4125 3.06702ZM2.55536 3.87059H15.4125C15.9912 3.87209 16.4878 4.2828 16.5978 4.85082L8.98393 9.0938L1.37009 4.85082C1.48008 4.2828 1.97666 3.87209 2.55536 3.87059ZM15.4125 13.7786H2.55536C1.89053 13.7766 1.35189 13.2381 1.35 12.5733V5.75898L8.78706 9.90528C8.84733 9.93843 8.915 9.95651 8.98393 9.95764C9.05312 9.9584 9.12104 9.94032 9.18081 9.90528L16.6179 5.75898V12.5733C16.6174 13.2387 16.078 13.778 15.4125 13.7786Z" fill="black"/>
</svg>
