<svg width="20" height="20" viewBox="0 0 20 20" fill="none" xmlns="http://www.w3.org/2000/svg">
<path d="M19.8002 13.7076L10.4607 4.36881C10.3273 4.23523 10.1738 4.16833 10.0001 4.16833C9.82645 4.16833 9.67266 4.23523 9.53915 4.36881L0.200471 13.7076C0.0666833 13.8414 0 13.9949 0 14.1687C0 14.3423 0.0668939 14.496 0.200471 14.6295L1.20226 15.6313C1.33584 15.7648 1.48956 15.8316 1.66322 15.8316C1.83688 15.8316 1.9906 15.7648 2.12418 15.6313L10.0001 7.75547L17.8763 15.6318C18.0098 15.7653 18.1636 15.8317 18.337 15.8317C18.5109 15.8317 18.6646 15.7649 18.7982 15.6318L19.8001 14.6296C19.9336 14.4961 19.9999 14.3423 19.9999 14.1687C20 13.9949 19.9337 13.8412 19.8002 13.7076Z" fill="#545454"/>
</svg>
