<svg width="18" height="18" viewBox="0 0 18 18" fill="none" xmlns="http://www.w3.org/2000/svg">
<path d="M14.5559 5.22949C14.75 5.22949 14.9074 5.0721 14.9074 4.87793V1.05469C14.9074 0.473133 14.4343 0 13.8527 0H1.05587C0.474313 0 0.00118065 0.473133 0.00118065 1.05469V16.9453C0.00118065 17.5269 0.474313 18 1.05587 18H13.8527C14.4343 18 14.9074 17.5269 14.9074 16.9453V14.3553C14.9074 14.1611 14.75 14.0037 14.5559 14.0037C14.3617 14.0037 14.2043 14.1611 14.2043 14.3553V16.9453C14.2043 17.1392 14.0466 17.2969 13.8527 17.2969H1.05587C0.862017 17.2969 0.704306 17.1392 0.704306 16.9453V1.05469C0.704306 0.860836 0.862017 0.703125 1.05587 0.703125H13.8527C14.0466 0.703125 14.2043 0.860836 14.2043 1.05469V4.87793C14.2043 5.0721 14.3617 5.22949 14.5559 5.22949Z" fill="black"/>
<path d="M7.45337 1.89844C5.66993 1.89844 4.219 3.34937 4.219 5.13281C4.219 6.05802 4.60958 6.89361 5.23438 7.48368C5.24609 7.49619 5.25853 7.50804 5.27214 7.51883C5.84768 8.04544 6.61363 8.36715 7.45334 8.36715C8.29304 8.36715 9.05899 8.0454 9.63453 7.51883C9.64814 7.50804 9.66058 7.49616 9.67229 7.48368C10.2972 6.89361 10.6877 6.05802 10.6877 5.13281C10.6877 3.34937 9.23681 1.89844 7.45337 1.89844ZM7.45337 7.66406C6.8793 7.66406 6.3495 7.47169 5.92439 7.14839C6.23338 6.60048 6.80998 6.25781 7.45337 6.25781C8.09677 6.25781 8.67336 6.60048 8.98235 7.14839C8.55721 7.47169 8.02744 7.66406 7.45337 7.66406ZM6.89087 4.99219V4.76367C6.89087 4.45352 7.14322 4.20117 7.45337 4.20117C7.76352 4.20117 8.01587 4.45352 8.01587 4.76367V4.99219C8.01587 5.30234 7.76352 5.55469 7.45337 5.55469C7.14322 5.55469 6.89087 5.30234 6.89087 4.99219ZM9.49032 6.63339C9.23105 6.24885 8.87171 5.94977 8.45451 5.76513C8.6201 5.55114 8.719 5.28307 8.719 4.99219V4.76367C8.719 4.06578 8.15126 3.49805 7.45337 3.49805C6.75548 3.49805 6.18775 4.06578 6.18775 4.76367V4.99219C6.18775 5.28307 6.28664 5.55114 6.45223 5.76513C6.03503 5.94977 5.6757 6.24885 5.41642 6.63339C5.10602 6.21316 4.92212 5.69415 4.92212 5.13281C4.92212 3.73707 6.05763 2.60156 7.45337 2.60156C8.84911 2.60156 9.98462 3.73707 9.98462 5.13281C9.98462 5.69415 9.80072 6.21316 9.49032 6.63339Z" fill="black"/>
<path d="M9.35181 15.3984H7.45337C7.25924 15.3984 7.10181 15.5558 7.10181 15.75C7.10181 15.9442 7.25924 16.1016 7.45337 16.1016H9.35181C9.54594 16.1016 9.70337 15.9442 9.70337 15.75C9.70337 15.5558 9.54594 15.3984 9.35181 15.3984Z" fill="black"/>
<path d="M9.35181 13.4297H4.35962C4.16549 13.4297 4.00806 13.5871 4.00806 13.7812C4.00806 13.9754 4.16549 14.1328 4.35962 14.1328H9.35181C9.54594 14.1328 9.70337 13.9754 9.70337 13.7812C9.70337 13.5871 9.54594 13.4297 9.35181 13.4297Z" fill="black"/>
<path d="M9.35181 11.4609H4.35962C4.16549 11.4609 4.00806 11.6183 4.00806 11.8125C4.00806 12.0067 4.16549 12.1641 4.35962 12.1641H9.35181C9.54594 12.1641 9.70337 12.0067 9.70337 11.8125C9.70337 11.6183 9.54594 11.4609 9.35181 11.4609Z" fill="black"/>
<path d="M3.10662 9.5952C3.04126 9.5298 2.95056 9.49219 2.85775 9.49219C2.76525 9.49219 2.67455 9.5298 2.60919 9.5952C2.5438 9.66059 2.50618 9.75129 2.50618 9.84375C2.50618 9.93621 2.54377 10.0269 2.60919 10.0923C2.67493 10.1577 2.76525 10.1953 2.85775 10.1953C2.95056 10.1953 3.04091 10.1577 3.10662 10.0923C3.17201 10.0269 3.20966 9.93621 3.20966 9.84375C3.20966 9.75129 3.17204 9.66059 3.10662 9.5952Z" fill="black"/>
<path d="M3.10662 11.5639C3.04091 11.4986 2.95056 11.4609 2.85775 11.4609C2.76525 11.4609 2.67493 11.4986 2.60919 11.5639C2.5438 11.6293 2.50618 11.72 2.50618 11.8125C2.50618 11.905 2.54377 11.9957 2.60919 12.0611C2.67493 12.1264 2.76525 12.1641 2.85775 12.1641C2.95056 12.1641 3.04091 12.1264 3.10662 12.0611C3.17201 11.9957 3.20966 11.905 3.20966 11.8125C3.20966 11.72 3.17204 11.6293 3.10662 11.5639Z" fill="black"/>
<path d="M3.10662 13.5327C3.04091 13.4673 2.95056 13.4297 2.85775 13.4297C2.76525 13.4297 2.67493 13.4673 2.60919 13.5327C2.5438 13.5981 2.50618 13.6888 2.50618 13.7812C2.50618 13.8737 2.54377 13.9644 2.60919 14.0298C2.67455 14.0952 2.76525 14.1328 2.85775 14.1328C2.95056 14.1328 3.04126 14.0952 3.10662 14.0298C3.17201 13.9644 3.20966 13.8737 3.20966 13.7812C3.20966 13.6888 3.17204 13.5981 3.10662 13.5327Z" fill="black"/>
<path d="M9.35181 9.49219H4.35962C4.16549 9.49219 4.00806 9.64958 4.00806 9.84375C4.00806 10.0379 4.16549 10.1953 4.35962 10.1953H9.35181C9.54594 10.1953 9.70337 10.0379 9.70337 9.84375C9.70337 9.64958 9.54594 9.49219 9.35181 9.49219Z" fill="black"/>
<path d="M17.2618 4.58157C16.9202 4.38438 16.5223 4.33199 16.1413 4.43405C15.7604 4.53615 15.4419 4.78048 15.2448 5.12203L10.8206 12.7848C10.7964 12.8268 10.7811 12.8734 10.7757 12.9216L10.4643 15.711C10.4488 15.8498 10.517 15.9846 10.6379 16.0545C10.6925 16.086 10.7531 16.1016 10.8136 16.1016C10.8872 16.1016 10.9605 16.0786 11.0222 16.0331L13.2821 14.3687C13.3212 14.3399 13.3539 14.3034 13.3781 14.2614L17.8022 6.59862C18.2093 5.89353 17.9669 4.98868 17.2618 4.58157ZM11.2522 14.9904L11.4148 13.5338L12.4323 14.1213L11.2522 14.9904ZM12.945 13.6053L11.6054 12.8319L15.1556 6.68272L16.4952 7.45615L12.945 13.6053ZM17.1933 6.24703L16.8468 6.84725L15.5071 6.07381L15.8537 5.47359C15.957 5.29468 16.1237 5.16671 16.3233 5.11324C16.5229 5.05973 16.7313 5.08722 16.9102 5.19051C17.0891 5.2938 17.2171 5.46058 17.2705 5.66013C17.324 5.85967 17.2966 6.06811 17.1933 6.24703Z" fill="black"/>
</svg>
