<svg width="18" height="18" viewBox="0 0 18 18" fill="none" xmlns="http://www.w3.org/2000/svg">
<path d="M4.35431 2.51927H3.71461C3.81083 1.8069 4.20472 1.77111 4.38599 1.75462C4.56708 1.73813 4.7057 1.58633 4.7057 1.4045V0.35245C4.7057 0.255805 4.6659 0.16338 4.59566 0.0969694C4.52542 0.0305593 4.43085 -0.0038587 4.33441 0.00144989C3.22312 0.0639577 1.89844 0.625051 1.89844 2.94318V4.77272C1.89844 5.07812 2.14689 5.32657 2.45229 5.32657H4.35435C4.65975 5.32657 4.9082 5.07808 4.90816 4.77268V3.07312C4.90816 2.76772 4.65971 2.51927 4.35431 2.51927ZM4.20507 4.62341H2.60156V2.94318C2.60156 1.32565 3.32089 0.873887 4.00257 0.746376V1.11601C3.5318 1.25931 2.98997 1.68252 2.98997 2.87083C2.98997 3.065 3.14736 3.2224 3.34153 3.2224H4.20507V4.62341Z" fill="black"/>
<path d="M7.94852 2.51927H7.30878C7.405 1.8069 7.79889 1.77111 7.98016 1.75462C8.16125 1.73813 8.29987 1.58633 8.29987 1.4045V0.35245C8.29987 0.255805 8.26007 0.16338 8.18983 0.0969694C8.11959 0.0305593 8.02495 -0.0038587 7.92858 0.00144989C6.8173 0.0639577 5.49261 0.625051 5.49261 2.94318V4.77272C5.49261 5.07812 5.74106 5.32657 6.04646 5.32657H7.94852C8.25392 5.32657 8.5024 5.07808 8.50237 4.77264V3.07312C8.50237 2.76772 8.25392 2.51927 7.94852 2.51927ZM7.79924 4.62344H6.19573V2.94318C6.19573 1.32565 6.91506 0.873887 7.59674 0.746376V1.11601C7.12597 1.25931 6.58414 1.68252 6.58414 2.87083C6.58414 3.065 6.74153 3.2224 6.9357 3.2224H7.79924V4.62344Z" fill="black"/>
<path d="M10.022 2.84043C9.9566 2.77504 9.8659 2.73743 9.77344 2.73743C9.68098 2.73743 9.59027 2.77504 9.52488 2.84043C9.45949 2.90583 9.42188 2.99653 9.42188 3.08899C9.42188 3.18145 9.45949 3.27215 9.52488 3.33754C9.59027 3.40293 9.68098 3.44055 9.77344 3.44055C9.8659 3.44055 9.9566 3.40293 10.022 3.33754C10.0874 3.27215 10.125 3.18145 10.125 3.08899C10.125 2.99653 10.0874 2.90583 10.022 2.84043Z" fill="black"/>
<path d="M11.7516 2.7374H11.3086C11.1144 2.7374 10.957 2.89479 10.957 3.08896C10.957 3.28313 11.1144 3.44052 11.3086 3.44052H11.7516C14.8093 3.44052 17.2969 5.92814 17.2969 8.98582C17.2969 11.5955 15.446 13.8779 12.8958 14.4127C12.733 14.4469 12.6164 14.5905 12.6164 14.7568V16.7995L10.451 14.6341C10.3851 14.5682 10.2956 14.5311 10.2024 14.5311H6.24843C3.19075 14.5311 0.703125 12.0435 0.703125 8.98582C0.703125 8.04346 0.943699 7.11291 1.39887 6.29468C1.4933 6.12502 1.43223 5.91095 1.26257 5.81656C1.09287 5.72213 0.878801 5.78319 0.784441 5.95286C0.27123 6.87532 0 7.9241 0 8.98582C0 12.4312 2.80301 15.2342 6.24843 15.2342H10.0568L12.7194 17.8968C12.7866 17.9641 12.8765 17.9998 12.968 17.9998C13.0133 17.9998 13.059 17.9911 13.1025 17.973C13.2338 17.9186 13.3195 17.7905 13.3195 17.6482V15.0354C14.5916 14.7058 15.7418 13.9723 16.5823 12.9491C17.4965 11.8362 18 10.4287 18 8.98582C18 5.54044 15.197 2.73743 11.7516 2.7374Z" fill="black"/>
<path d="M13.3265 6.23996H4.67356C4.47939 6.23996 4.322 6.39735 4.322 6.59152C4.322 6.78569 4.47939 6.94308 4.67356 6.94308H13.3264C13.5206 6.94308 13.678 6.78569 13.678 6.59152C13.678 6.39735 13.5206 6.23996 13.3265 6.23996Z" fill="black"/>
<path d="M13.3265 8.11493H4.67356C4.47939 8.11493 4.322 8.27232 4.322 8.46649C4.322 8.66066 4.47939 8.81805 4.67356 8.81805H13.3264C13.5206 8.81805 13.678 8.66066 13.678 8.46649C13.678 8.27232 13.5206 8.11493 13.3265 8.11493Z" fill="black"/>
<path d="M13.3265 9.98993H4.67356C4.47939 9.98993 4.322 10.1474 4.322 10.3415C4.322 10.5356 4.47939 10.6931 4.67356 10.6931H13.3264C13.5206 10.6931 13.678 10.5356 13.678 10.3415C13.678 10.1474 13.5206 9.98993 13.3265 9.98993Z" fill="black"/>
<path d="M13.3264 11.865H8.71422C8.52005 11.865 8.36266 12.0224 8.36266 12.2165C8.36266 12.4107 8.52005 12.5681 8.71422 12.5681H13.3264C13.5206 12.5681 13.678 12.4107 13.678 12.2165C13.678 12.0224 13.5206 11.865 13.3264 11.865Z" fill="black"/>
<path d="M6.73619 11.8649H6.73053C6.53636 11.8649 6.37897 12.0223 6.37897 12.2165C6.37897 12.4106 6.53636 12.568 6.73053 12.568H6.73619C6.93036 12.568 7.08775 12.4106 7.08775 12.2165C7.08775 12.0223 6.93036 11.8649 6.73619 11.8649Z" fill="black"/>
</svg>
